<mxfile host="app.diagrams.net" modified="2024-07-15T12:20:15.300Z" agent="Mozilla/5.0 (Windows NT 10.0; Win64; x64) AppleWebKit/537.36 (KHTML, like Gecko) Chrome/126.0.0.0 Safari/537.36" etag="MnJ5ayd6EPN8M6slEgad" version="24.6.5" type="github">
  <diagram name="Seite-1" id="H9vMcOim9qjXaov2isdw">
    <mxGraphModel dx="1434" dy="772" grid="1" gridSize="10" guides="1" tooltips="1" connect="1" arrows="1" fold="1" page="1" pageScale="1" pageWidth="827" pageHeight="1169" math="0" shadow="0">
      <root>
        <mxCell id="0" />
        <mxCell id="1" parent="0" />
        <mxCell id="cd2sqBi8Acy1Kgd1BEXy-5" value="Matrix4x4" style="swimlane;fontStyle=1;align=center;verticalAlign=top;childLayout=stackLayout;horizontal=1;startSize=26;horizontalStack=0;resizeParent=1;resizeParentMax=0;resizeLast=0;collapsible=1;marginBottom=0;whiteSpace=wrap;html=1;" vertex="1" parent="1">
          <mxGeometry x="80" y="120" width="530" height="450" as="geometry" />
        </mxCell>
        <mxCell id="cd2sqBi8Acy1Kgd1BEXy-6" value="+ Elements: float[] (get)" style="text;strokeColor=none;fillColor=none;align=left;verticalAlign=top;spacingLeft=4;spacingRight=4;overflow=hidden;rotatable=0;points=[[0,0.5],[1,0.5]];portConstraint=eastwest;whiteSpace=wrap;html=1;" vertex="1" parent="cd2sqBi8Acy1Kgd1BEXy-5">
          <mxGeometry y="26" width="530" height="26" as="geometry" />
        </mxCell>
        <mxCell id="cd2sqBi8Acy1Kgd1BEXy-9" value="- v11 - v44: float" style="text;strokeColor=none;fillColor=none;align=left;verticalAlign=top;spacingLeft=4;spacingRight=4;overflow=hidden;rotatable=0;points=[[0,0.5],[1,0.5]];portConstraint=eastwest;whiteSpace=wrap;html=1;" vertex="1" parent="cd2sqBi8Acy1Kgd1BEXy-5">
          <mxGeometry y="52" width="530" height="26" as="geometry" />
        </mxCell>
        <mxCell id="cd2sqBi8Acy1Kgd1BEXy-7" value="" style="line;strokeWidth=1;fillColor=none;align=left;verticalAlign=middle;spacingTop=-1;spacingLeft=3;spacingRight=3;rotatable=0;labelPosition=right;points=[];portConstraint=eastwest;strokeColor=inherit;" vertex="1" parent="cd2sqBi8Acy1Kgd1BEXy-5">
          <mxGeometry y="78" width="530" height="8" as="geometry" />
        </mxCell>
        <mxCell id="cd2sqBi8Acy1Kgd1BEXy-8" value="+ Matrix4x4()" style="text;strokeColor=none;fillColor=none;align=left;verticalAlign=top;spacingLeft=4;spacingRight=4;overflow=hidden;rotatable=0;points=[[0,0.5],[1,0.5]];portConstraint=eastwest;whiteSpace=wrap;html=1;" vertex="1" parent="cd2sqBi8Acy1Kgd1BEXy-5">
          <mxGeometry y="86" width="530" height="26" as="geometry" />
        </mxCell>
        <mxCell id="cd2sqBi8Acy1Kgd1BEXy-11" value="+ Matrix4x4(diagonal: float)" style="text;strokeColor=none;fillColor=none;align=left;verticalAlign=top;spacingLeft=4;spacingRight=4;overflow=hidden;rotatable=0;points=[[0,0.5],[1,0.5]];portConstraint=eastwest;whiteSpace=wrap;html=1;" vertex="1" parent="cd2sqBi8Acy1Kgd1BEXy-5">
          <mxGeometry y="112" width="530" height="26" as="geometry" />
        </mxCell>
        <mxCell id="cd2sqBi8Acy1Kgd1BEXy-10" value="+ Matrix4x4(v: float[])" style="text;strokeColor=none;fillColor=none;align=left;verticalAlign=top;spacingLeft=4;spacingRight=4;overflow=hidden;rotatable=0;points=[[0,0.5],[1,0.5]];portConstraint=eastwest;whiteSpace=wrap;html=1;" vertex="1" parent="cd2sqBi8Acy1Kgd1BEXy-5">
          <mxGeometry y="138" width="530" height="26" as="geometry" />
        </mxCell>
        <mxCell id="cd2sqBi8Acy1Kgd1BEXy-12" value="+ isIdentity(): bool" style="text;strokeColor=none;fillColor=none;align=left;verticalAlign=top;spacingLeft=4;spacingRight=4;overflow=hidden;rotatable=0;points=[[0,0.5],[1,0.5]];portConstraint=eastwest;whiteSpace=wrap;html=1;" vertex="1" parent="cd2sqBi8Acy1Kgd1BEXy-5">
          <mxGeometry y="164" width="530" height="26" as="geometry" />
        </mxCell>
        <mxCell id="cd2sqBi8Acy1Kgd1BEXy-13" value="+ Multiply(vector: Vector3): Vector3" style="text;strokeColor=none;fillColor=none;align=left;verticalAlign=top;spacingLeft=4;spacingRight=4;overflow=hidden;rotatable=0;points=[[0,0.5],[1,0.5]];portConstraint=eastwest;whiteSpace=wrap;html=1;" vertex="1" parent="cd2sqBi8Acy1Kgd1BEXy-5">
          <mxGeometry y="190" width="530" height="26" as="geometry" />
        </mxCell>
        <mxCell id="cd2sqBi8Acy1Kgd1BEXy-14" value="+ Multiply(vector: Vector4): Vector4" style="text;strokeColor=none;fillColor=none;align=left;verticalAlign=top;spacingLeft=4;spacingRight=4;overflow=hidden;rotatable=0;points=[[0,0.5],[1,0.5]];portConstraint=eastwest;whiteSpace=wrap;html=1;" vertex="1" parent="cd2sqBi8Acy1Kgd1BEXy-5">
          <mxGeometry y="216" width="530" height="26" as="geometry" />
        </mxCell>
        <mxCell id="cd2sqBi8Acy1Kgd1BEXy-15" value="&lt;u&gt;+ Identity(): Matrix4x4&lt;/u&gt;" style="text;strokeColor=none;fillColor=none;align=left;verticalAlign=top;spacingLeft=4;spacingRight=4;overflow=hidden;rotatable=0;points=[[0,0.5],[1,0.5]];portConstraint=eastwest;whiteSpace=wrap;html=1;" vertex="1" parent="cd2sqBi8Acy1Kgd1BEXy-5">
          <mxGeometry y="242" width="530" height="26" as="geometry" />
        </mxCell>
        <mxCell id="cd2sqBi8Acy1Kgd1BEXy-21" value="&lt;u&gt;+ Orthograohic(left:float, right:float, bottom:float, top:float, near:float, far:float): Matrix4x4&lt;/u&gt;" style="text;strokeColor=none;fillColor=none;align=left;verticalAlign=top;spacingLeft=4;spacingRight=4;overflow=hidden;rotatable=0;points=[[0,0.5],[1,0.5]];portConstraint=eastwest;whiteSpace=wrap;html=1;" vertex="1" parent="cd2sqBi8Acy1Kgd1BEXy-5">
          <mxGeometry y="268" width="530" height="26" as="geometry" />
        </mxCell>
        <mxCell id="cd2sqBi8Acy1Kgd1BEXy-23" value="&lt;u&gt;+ Translation(ref pos:Vector3): Matrix4x4&lt;/u&gt;" style="text;strokeColor=none;fillColor=none;align=left;verticalAlign=top;spacingLeft=4;spacingRight=4;overflow=hidden;rotatable=0;points=[[0,0.5],[1,0.5]];portConstraint=eastwest;whiteSpace=wrap;html=1;" vertex="1" parent="cd2sqBi8Acy1Kgd1BEXy-5">
          <mxGeometry y="294" width="530" height="26" as="geometry" />
        </mxCell>
        <mxCell id="cd2sqBi8Acy1Kgd1BEXy-22" value="&lt;u&gt;+ Rotation(angle:float): Ma&lt;span style=&quot;background-color: initial;&quot;&gt;trix4x4&lt;/span&gt;&lt;/u&gt;" style="text;strokeColor=none;fillColor=none;align=left;verticalAlign=top;spacingLeft=4;spacingRight=4;overflow=hidden;rotatable=0;points=[[0,0.5],[1,0.5]];portConstraint=eastwest;whiteSpace=wrap;html=1;" vertex="1" parent="cd2sqBi8Acy1Kgd1BEXy-5">
          <mxGeometry y="320" width="530" height="26" as="geometry" />
        </mxCell>
        <mxCell id="cd2sqBi8Acy1Kgd1BEXy-19" value="&lt;u&gt;+ Scale(scale:Vector3): Matrix4x4&lt;/u&gt;" style="text;strokeColor=none;fillColor=none;align=left;verticalAlign=top;spacingLeft=4;spacingRight=4;overflow=hidden;rotatable=0;points=[[0,0.5],[1,0.5]];portConstraint=eastwest;whiteSpace=wrap;html=1;" vertex="1" parent="cd2sqBi8Acy1Kgd1BEXy-5">
          <mxGeometry y="346" width="530" height="26" as="geometry" />
        </mxCell>
        <mxCell id="cd2sqBi8Acy1Kgd1BEXy-20" value="&lt;u&gt;+ *(a: Matrix4x4, b: Matrix4x4): Ma&lt;span style=&quot;background-color: initial;&quot;&gt;trix4x4&lt;/span&gt;&lt;/u&gt;" style="text;strokeColor=none;fillColor=none;align=left;verticalAlign=top;spacingLeft=4;spacingRight=4;overflow=hidden;rotatable=0;points=[[0,0.5],[1,0.5]];portConstraint=eastwest;whiteSpace=wrap;html=1;" vertex="1" parent="cd2sqBi8Acy1Kgd1BEXy-5">
          <mxGeometry y="372" width="530" height="26" as="geometry" />
        </mxCell>
        <mxCell id="cd2sqBi8Acy1Kgd1BEXy-18" value="&lt;u&gt;+ *(a: Matrix4x4, b: Vector3): Vector3&lt;/u&gt;" style="text;strokeColor=none;fillColor=none;align=left;verticalAlign=top;spacingLeft=4;spacingRight=4;overflow=hidden;rotatable=0;points=[[0,0.5],[1,0.5]];portConstraint=eastwest;whiteSpace=wrap;html=1;" vertex="1" parent="cd2sqBi8Acy1Kgd1BEXy-5">
          <mxGeometry y="398" width="530" height="26" as="geometry" />
        </mxCell>
        <mxCell id="cd2sqBi8Acy1Kgd1BEXy-17" value="&lt;u&gt;+ *(a: Matrix4x4, b: Vector4): Vector4&lt;/u&gt;" style="text;strokeColor=none;fillColor=none;align=left;verticalAlign=top;spacingLeft=4;spacingRight=4;overflow=hidden;rotatable=0;points=[[0,0.5],[1,0.5]];portConstraint=eastwest;whiteSpace=wrap;html=1;" vertex="1" parent="cd2sqBi8Acy1Kgd1BEXy-5">
          <mxGeometry y="424" width="530" height="26" as="geometry" />
        </mxCell>
      </root>
    </mxGraphModel>
  </diagram>
</mxfile>
